<?xml version="1.0" standalone="no"?>
<!DOCTYPE svg PUBLIC "-//W3C//DTD SVG 20010904//EN"
 "http://www.w3.org/TR/2001/REC-SVG-20010904/DTD/svg10.dtd">
<svg version="1.0" xmlns="http://www.w3.org/2000/svg"
 width="1024.000000pt" height="1024.000000pt" viewBox="0 0 1024.000000 1024.000000"
 preserveAspectRatio="xMidYMid meet">

<g transform="translate(0.000000,1024.000000) scale(0.100000,-0.100000)"
fill="#000000" stroke="none">
<path d="M0 5120 l0 -5120 5120 0 5120 0 0 5120 0 5120 -5120 0 -5120 0 0
-5120z m4350 2960 c25 -25 25 -36 -1 -85 -29 -54 -170 -263 -239 -355 -131
-174 -356 -517 -345 -528 3 -3 23 12 45 33 39 38 57 40 23 3 -31 -35 -3 -31
64 10 73 43 153 108 153 123 0 19 -31 7 -94 -36 -66 -45 -86 -53 -86 -36 0 15
110 99 167 127 51 25 58 26 82 13 30 -17 39 -57 21 -100 -21 -49 -132 -144
-221 -188 -45 -23 -90 -41 -100 -41 -10 0 -21 -5 -25 -12 -11 -17 106 -124
145 -131 34 -7 52 -34 31 -47 -15 -10 -73 3 -104 23 -13 9 -55 43 -94 76 -38
34 -73 61 -76 61 -3 0 -21 -24 -40 -52 -45 -71 -68 -90 -103 -86 -23 2 -29 8
-31 35 -2 18 2 42 9 55 12 23 305 482 507 796 62 96 112 175 112 177 0 4 62
106 81 132 16 23 65 53 87 53 6 0 21 -9 32 -20z m575 -114 c9 -13 13 -31 9
-42 -8 -20 -107 -165 -128 -186 -33 -35 -355 -488 -474 -668 -229 -348 -345
-525 -405 -620 -52 -82 -60 -91 -85 -88 -57 7 -57 8 195 408 480 765 747 1164
804 1204 33 23 66 20 84 -8z m879 -52 c20 -19 20 -35 2 -77 -26 -62 -242 -367
-469 -664 -61 -80 -120 -171 -133 -205 -12 -33 21 -19 147 63 152 100 220 139
242 139 29 0 19 -17 -26 -43 -24 -14 -105 -75 -179 -134 -142 -113 -207 -153
-251 -153 -29 0 -57 32 -57 65 0 53 98 215 295 490 48 66 136 199 197 295 142
226 187 270 232 224z m-2354 -144 c0 -5 -19 -19 -42 -31 -190 -97 -474 -422
-617 -707 -23 -44 -41 -85 -41 -90 0 -6 -12 -20 -26 -31 -46 -36 -94 -23 -94
25 0 31 54 121 147 246 198 267 404 463 598 570 53 29 75 34 75 18z m230 -36
c6 -14 10 -40 9 -57 0 -28 -2 -26 -19 23 -23 66 -22 60 -10 60 6 0 15 -12 20
-26z m0 -159 c0 -57 -97 -276 -183 -414 -92 -149 -271 -367 -368 -452 -125
-107 -269 -189 -334 -189 -65 0 -105 47 -105 125 0 188 319 679 540 828 29 20
89 23 91 5 3 -32 -9 -49 -97 -138 -51 -52 -118 -127 -148 -165 -132 -171 -266
-432 -266 -517 0 -48 126 2 254 100 241 186 543 597 587 801 11 51 29 61 29
16z m1226 -271 c24 -12 34 -23 34 -39 0 -21 -4 -23 -38 -18 -27 4 -51 -1 -79
-16 -54 -27 -183 -132 -215 -173 -29 -38 -58 -92 -58 -108 0 -15 45 -12 87 5
87 36 75 -5 -19 -66 -101 -65 -178 -48 -178 39 0 112 231 348 375 383 46 11
54 10 91 -7z m2675 0 c22 -11 29 -21 27 -37 -2 -14 -9 -21 -18 -18 -56 14
-129 -21 -240 -115 -107 -92 -164 -194 -107 -194 12 0 42 9 66 20 24 11 47 20
52 20 21 0 6 -27 -33 -59 -85 -71 -154 -89 -199 -52 -34 27 -31 93 6 157 45
79 191 216 275 258 79 39 124 45 171 20z m-1493 -17 c3 -17 -32 -64 -124 -169
-52 -59 -100 -149 -91 -172 6 -15 9 -15 44 3 49 25 103 75 103 95 0 9 -5 16
-10 16 -13 0 -29 41 -22 58 3 9 13 5 34 -15 38 -36 53 -27 95 57 29 58 33 62
33 34 0 -17 -7 -52 -16 -78 -9 -27 -13 -51 -8 -56 5 -5 30 -4 56 2 44 10 51
17 90 77 73 114 116 161 148 161 59 0 49 -48 -39 -189 -28 -46 -50 -86 -47
-88 2 -3 46 29 98 70 92 74 184 137 200 137 21 0 3 -19 -54 -57 -72 -47 -145
-115 -242 -225 -76 -85 -113 -107 -151 -90 -32 15 -33 61 -5 127 11 26 20 48
20 50 0 2 -24 1 -52 -2 -49 -6 -57 -11 -112 -70 -106 -116 -218 -157 -265 -97
-31 39 -26 82 19 170 73 146 201 277 265 272 19 -2 31 -9 33 -21z m1002 -57
c0 -11 -5 -20 -12 -20 -37 0 -203 -125 -439 -329 -41 -35 -78 -43 -104 -21
-21 18 -19 43 9 98 39 74 180 267 196 267 24 0 16 -57 -18 -130 -17 -36 -27
-65 -23 -65 4 0 37 22 72 48 123 92 262 171 302 172 10 0 17 -8 17 -20z m40
-37 c0 -28 -50 -127 -139 -273 -45 -74 -102 -177 -127 -228 -53 -108 -80 -130
-116 -94 -19 19 -20 24 -9 49 15 32 92 147 211 313 45 63 100 145 122 183 40
67 58 82 58 50z m778 -55 c-4 -29 -38 -38 -38 -10 0 22 8 32 27 32 9 0 13 -8
11 -22z m-2215 -26 c-4 -38 -283 -493 -309 -504 -29 -14 -74 6 -74 32 0 25
103 172 274 388 85 108 114 130 109 84z m-793 -21 c0 -11 -18 -49 -41 -85 -64
-102 -44 -136 58 -102 60 21 79 6 32 -23 -72 -45 -159 -51 -191 -13 -27 31
-28 51 -4 114 20 53 31 67 72 94 57 38 74 41 74 15z m2670 1 c0 -11 -18 -47
-40 -81 -63 -97 -51 -135 33 -111 57 16 79 17 84 4 5 -15 -84 -53 -141 -60
-39 -6 -48 -3 -71 20 -31 31 -31 65 0 146 25 67 135 133 135 82z m-3625 -806
c29 -13 35 -20 35 -45 0 -38 -21 -41 -44 -6 -29 44 -96 24 -81 -24 3 -11 33
-35 65 -52 63 -33 86 -67 75 -112 -12 -45 -41 -62 -107 -62 -67 0 -91 19 -86
65 4 36 31 36 45 0 11 -28 15 -31 50 -28 31 2 39 7 41 26 5 30 -10 46 -65 73
-84 41 -96 125 -23 161 42 22 51 22 95 4z m2687 -23 c46 -41 62 -139 34 -208
-41 -97 -192 -99 -242 -3 -25 47 -22 138 5 181 40 65 147 81 203 30z m-2092
-12 c0 -49 -16 -61 -32 -26 -9 20 -18 25 -37 23 -24 -3 -25 -4 -27 -106 -3
-91 -1 -105 16 -122 32 -32 24 -40 -45 -40 -53 0 -65 3 -65 16 0 9 9 18 20 21
19 5 20 12 18 121 -3 127 -11 141 -52 97 -14 -15 -30 -24 -35 -20 -12 7 -15
58 -4 68 3 4 60 7 125 7 l118 0 0 -39z m415 30 c3 -6 -4 -15 -15 -21 -18 -10
-20 -20 -20 -107 0 -108 12 -133 61 -133 50 0 59 20 59 136 0 86 -3 104 -15
104 -8 0 -15 7 -15 15 0 12 13 15 55 15 57 0 70 -11 35 -30 -18 -10 -20 -21
-20 -110 0 -54 -5 -110 -11 -123 -14 -32 -49 -47 -105 -47 -37 0 -51 6 -75 29
-28 29 -29 32 -29 136 0 85 -3 107 -15 111 -8 4 -15 12 -15 20 0 10 15 14 59
14 33 0 62 -4 66 -9z m652 -11 c50 -30 68 -66 68 -135 0 -108 -43 -146 -172
-153 -94 -5 -124 7 -85 34 20 14 22 23 22 119 0 94 -2 106 -20 117 -43 27 -23
38 68 38 69 0 94 -4 119 -20z m493 6 c0 -8 -7 -16 -15 -20 -12 -4 -15 -27 -15
-121 0 -94 3 -117 15 -121 8 -4 15 -12 15 -20 0 -10 -15 -14 -59 -14 -65 0
-84 12 -51 32 18 12 20 23 20 123 0 100 -2 111 -20 123 -33 20 -14 32 51 32
44 0 59 -4 59 -14z m-483 -1111 c186 -17 411 -110 562 -231 178 -144 280 -310
341 -559 31 -126 22 -506 -16 -657 -69 -280 -202 -546 -382 -761 -91 -108
-275 -283 -381 -363 -139 -104 -324 -192 -474 -225 -85 -18 -86 -23 -48 -142
60 -186 123 -346 168 -424 24 -43 42 -87 41 -98 -4 -30 -72 -41 -175 -28 -91
11 -126 29 -155 79 -15 27 -74 263 -113 459 -9 46 -23 85 -33 93 -10 8 -52 12
-122 12 -109 0 -162 11 -276 60 -111 48 -255 178 -329 299 -21 34 -42 61 -46
61 -4 0 -44 -37 -88 -83 -135 -140 -274 -204 -421 -194 -75 4 -98 12 -158 55
-60 43 -102 145 -82 198 13 32 51 30 65 -5 50 -123 77 -141 205 -141 73 0 93
4 145 29 33 16 79 42 101 59 64 47 172 151 179 173 4 10 -5 52 -19 94 -89 266
-84 593 14 886 116 346 384 634 717 770 297 122 555 114 676 -20 55 -61 50
-88 -14 -66 -84 30 -146 35 -237 20 -103 -18 -256 -70 -288 -99 -15 -14 -41
-72 -73 -161 -47 -136 -92 -251 -225 -580 -38 -93 -61 -164 -56 -169 11 -11
74 38 133 104 40 45 44 55 56 134 10 66 20 95 42 126 54 74 109 92 154 50 l25
-23 227 224 c124 123 340 338 478 477 146 147 259 252 270 253 51 3 69 -9 115
-79 48 -72 44 -82 -88 -219 -431 -448 -486 -503 -508 -503 -13 0 -26 5 -29 10
-12 20 -44 9 -92 -30 -26 -22 -97 -77 -158 -124 -60 -46 -136 -109 -169 -140
l-58 -56 7 -142 c16 -355 97 -1005 135 -1096 14 -32 34 -28 135 24 147 75 262
161 396 294 308 306 522 697 620 1135 27 116 37 360 19 459 -41 238 -89 346
-199 456 -91 90 -177 136 -331 177 -99 26 -117 27 -305 27 -169 -1 -215 -5
-299 -24 -487 -109 -913 -440 -1149 -891 -74 -140 -126 -302 -128 -397 0 -20
-6 -57 -12 -82 -10 -38 -16 -45 -37 -45 -37 0 -50 36 -50 143 0 301 159 633
439 913 201 200 403 328 663 417 252 87 439 110 695 87z m4092 -4431 c27 -63
90 -123 156 -151 25 -10 45 -20 45 -23 0 -3 -25 -16 -56 -29 -63 -27 -123 -90
-151 -156 -10 -25 -20 -45 -23 -45 -3 0 -16 25 -29 56 -27 63 -90 123 -156
151 -25 10 -45 20 -45 23 0 3 25 16 56 29 63 27 123 90 151 156 10 25 20 45
23 45 3 0 16 -25 29 -56z"/>
<path d="M6500 6242 c-41 -34 -47 -160 -8 -201 25 -28 79 -28 103 -1 23 26 31
115 15 164 -17 54 -69 71 -110 38z"/>
<path d="M5494 6247 c-2 -7 -3 -60 -2 -118 3 -91 5 -104 21 -107 60 -12 97 34
97 118 0 62 -11 85 -50 105 -36 18 -59 19 -66 2z"/>
<path d="M4646 4177 c-162 -164 -323 -465 -379 -707 -33 -143 -37 -177 -37
-316 0 -114 3 -144 13 -144 23 0 43 30 100 145 134 269 208 453 331 814 66
195 83 257 75 267 -6 8 -16 14 -22 14 -5 0 -42 -33 -81 -73z"/>
<path d="M4885 3780 c-9 -15 3 -47 22 -54 21 -9 45 13 41 38 -3 23 -51 35 -63
16z"/>
<path d="M4734 3474 c-84 -56 -65 -33 -414 -527 -58 -83 -59 -97 -9 -196 56
-112 143 -201 254 -258 136 -70 340 -107 363 -67 6 11 0 62 -20 153 -65 306
-96 532 -105 749 -4 100 -10 155 -18 162 -8 7 -24 2 -51 -16z"/>
<path d="M5221 1841 c-7 -5 -11 -17 -9 -27 4 -25 51 -26 56 -2 4 20 -29 40
-47 29z"/>
</g>
</svg>
